<svg width="476" height="96" viewBox="0 0 476 96" fill="none" xmlns="http://www.w3.org/2000/svg">
<path d="M468.896 41.5371L469.622 42.0378L469.999 41.2408L474.593 31.5427L474.886 30.9229L474.295 30.5752C471.347 28.8411 467.936 27.3743 464.067 26.1699C460.234 24.8647 455.9 24.219 451.074 24.219C446.23 24.219 441.917 24.9975 438.151 26.5741C434.396 28.1459 431.433 30.302 429.298 33.0594C427.152 35.8309 426.079 39.0132 426.079 42.5786C426.079 45.6341 426.559 48.3703 427.538 50.7731C428.529 53.206 430.272 55.4682 432.721 57.5675L432.727 57.5726L432.733 57.5776C435.175 59.5835 438.547 61.6541 442.827 63.7939C448.097 66.4292 451.522 68.6352 453.211 70.4041L453.217 70.4104L453.223 70.4166C454.984 72.1771 455.811 74.0367 455.811 76.0113C455.811 78.0786 454.762 79.866 452.449 81.3814C450.147 82.8897 446.948 83.6833 442.779 83.6833C439.123 83.6833 435.774 83.0604 432.725 81.8242C429.637 80.5722 426.981 79.0344 424.75 77.2164L424.12 76.703L423.659 77.3722L417.151 86.815L416.738 87.414L417.324 87.8449C420.286 90.0223 423.757 91.7988 427.731 93.1808L427.74 93.184L427.749 93.187C431.836 94.4913 436.509 95.1366 441.758 95.1366C446.849 95.1366 451.446 94.4031 455.54 92.9225L455.54 92.9227L455.553 92.9176C459.66 91.3447 462.966 89.0166 465.441 85.9227C467.948 82.789 469.178 78.8715 469.178 74.2248C469.178 69.5476 467.716 65.5773 464.773 62.3648C461.879 59.121 457.493 56.0517 451.668 53.1388C448.195 51.3601 445.502 49.8444 443.578 48.5901C441.758 47.3482 440.533 46.2289 439.841 45.2406C439.231 44.1633 438.935 43.0665 438.935 41.9406C438.935 40.0384 439.861 38.4724 441.896 37.2199C443.942 35.9607 446.89 35.2894 450.818 35.2894C454.563 35.2894 457.863 35.9134 460.731 37.1429L460.731 37.1429L460.738 37.1458C463.758 38.4039 466.476 39.8684 468.896 41.5371Z" fill="#E32227" stroke="#E32227" stroke-width="1.5"/>
<path d="M370.104 91.4624L370.111 91.4668L370.119 91.471C374.582 93.9215 379.686 95.1366 385.41 95.1366C390.227 95.1366 394.63 94.6205 398.615 93.581L398.622 93.5791L398.63 93.577C402.566 92.4645 405.84 91.3033 408.441 90.0896L408.923 89.8646L408.87 89.3353L407.849 79.1268L407.743 78.0611L406.778 78.5257C404.518 79.6139 401.742 80.7084 398.444 81.8077C395.217 82.8833 391.514 83.4281 387.324 83.4281C382.287 83.4281 378.222 81.9877 375.064 79.1537C372.105 76.4977 370.213 72.7083 369.445 67.7098C370.913 67.9183 372.548 68.1265 374.35 68.3344L374.365 68.3361L374.38 68.3373C376.696 68.5088 379.011 68.5945 381.326 68.5945C385.03 68.5945 388.9 68.2501 392.935 67.5634C397.079 66.8726 400.93 65.7054 404.483 64.0588L404.49 64.0557L404.497 64.0524C408.092 62.2984 411.039 59.837 413.326 56.6715C415.65 53.4534 416.785 49.4187 416.785 44.6203C416.785 41.0713 415.807 37.7435 413.863 34.6507C411.914 31.5509 409.133 29.0422 405.547 27.1173C402.008 25.1718 397.709 24.219 392.683 24.219C385.323 24.219 378.839 26.0395 373.259 29.7014L373.259 29.7014L373.254 29.7044C367.782 33.3523 363.528 38.2173 360.494 44.2849L360.494 44.2849L360.49 44.2926C357.545 50.3564 356.076 56.9773 356.076 64.144C356.076 70.4504 357.286 75.9753 359.733 80.6952L359.737 80.7026L359.741 80.7099C362.271 85.3331 365.726 88.9234 370.104 91.4624ZM381.332 38.3712L381.338 38.3675L381.344 38.3637C384.451 36.4013 387.927 35.417 391.79 35.417C395.474 35.417 398.339 36.4363 400.468 38.4075L400.468 38.4076L400.478 38.4166C402.714 40.4127 403.801 42.7666 403.801 45.5135C403.801 47.8292 403.304 49.7624 402.346 51.3461C401.39 52.9264 399.946 54.2062 397.974 55.1733C393.945 57.0627 388.414 58.0345 381.326 58.0345C378.969 58.0345 376.784 57.9506 374.771 57.7834C373.074 57.5619 371.378 57.3082 369.681 57.0224C370.382 52.9831 371.673 49.4071 373.546 46.2844C375.615 42.8919 378.211 40.2601 381.332 38.3712Z" fill="#E32227" stroke="#E32227" stroke-width="1.5"/>
<path d="M303.089 37.7927L305.134 26.6355L305.296 25.7503H304.396H293.295H292.665L292.556 26.371L280.944 92.726L280.79 93.6053H281.683H293.167H293.798L293.906 92.9838L298.5 66.5712C298.5 66.571 298.5 66.5707 298.5 66.5704C299.764 59.4045 301.822 53.5926 304.647 49.1048C307.585 44.4894 310.745 41.137 314.113 39.001C317.526 36.837 320.62 35.7999 323.41 35.7999C326.389 35.7999 328.69 36.7188 330.397 38.5032L330.402 38.5092L330.408 38.5151C332.197 40.3037 333.123 42.7351 333.123 45.8963C333.123 46.7218 333.082 47.6354 332.999 48.6384C332.918 49.5282 332.67 50.9799 332.246 53.0169L332.244 53.0281L332.242 53.0393L325.223 92.7247L325.068 93.6053H325.962H337.446H338.077L338.185 92.9845L345.459 51.385L345.459 51.385L345.461 51.3728C345.974 48.1196 346.236 45.3975 346.236 43.2166C346.236 37.9227 344.419 33.4345 340.787 29.8012C337.136 26.0627 332.295 24.219 326.345 24.219C321.245 24.219 316.379 25.8046 311.759 28.9424L311.759 28.9424L311.754 28.9462C308.344 31.3069 305.455 34.2581 303.089 37.7927Z" fill="#E32227" stroke="#E32227" stroke-width="1.5"/>
<path d="M218.019 92.7481L218.027 92.7525C221.032 94.3433 224.3 95.1365 227.821 95.1365C237.46 95.1365 245.349 90.3659 251.48 81.0143C251.701 85.2016 252.921 88.4739 255.246 90.7154L255.255 90.7249L255.266 90.734C257.916 93.1098 261.65 94.2433 266.358 94.2433H266.846L267.043 93.797L270.999 84.8646L271.466 83.8109H270.313C268.21 83.8109 266.591 83.3675 265.392 82.5481C264.295 81.7186 263.662 80.2912 263.662 78.053V78.0495V78.046V78.0425V78.039V78.0356V78.0321V78.0286V78.0251V78.0216V78.0182V78.0147V78.0112V78.0077V78.0042V78.0008V77.9973V77.9938V77.9903V77.9869V77.9834V77.9799V77.9765V77.973V77.9695V77.9661V77.9626V77.9591V77.9557V77.9522V77.9488V77.9453V77.9418V77.9384V77.9349V77.9315V77.928V77.9246V77.9211V77.9177V77.9142V77.9108V77.9073V77.9039V77.9004V77.897V77.8935V77.8901V77.8866V77.8832V77.8797V77.8763V77.8729V77.8694V77.866V77.8626V77.8591V77.8557V77.8523V77.8488V77.8454V77.842V77.8385V77.8351V77.8317V77.8283V77.8248V77.8214V77.818V77.8146V77.8111V77.8077V77.8043V77.8009V77.7975V77.794V77.7906V77.7872V77.7838V77.7804V77.777V77.7736V77.7702V77.7667V77.7633V77.7599V77.7565V77.7531V77.7497V77.7463V77.7429V77.7395V77.7361V77.7327V77.7293V77.7259V77.7225V77.7191V77.7157V77.7123V77.7089V77.7056V77.7022V77.6988V77.6954V77.692V77.6886V77.6852V77.6818V77.6785V77.6751V77.6717V77.6683V77.6649V77.6615V77.6582V77.6548V77.6514V77.648V77.6447V77.6413V77.6379V77.6346V77.6312V77.6278V77.6245V77.6211V77.6177V77.6143V77.611V77.6076V77.6043V77.6009V77.5975V77.5942V77.5908V77.5875V77.5841V77.5808V77.5774V77.574V77.5707V77.5673V77.564V77.5606V77.5573V77.5539V77.5506V77.5473V77.5439V77.5406V77.5372V77.5339V77.5305V77.5272V77.5239V77.5205V77.5172V77.5139V77.5105V77.5072V77.5038V77.5005V77.4972V77.4939V77.4905V77.4872V77.4839V77.4805V77.4772V77.4739V77.4706V77.4673V77.4639V77.4606V77.4573V77.454V77.4507V77.4473V77.444V77.4407V77.4374V77.4341V77.4308V77.4275V77.4241V77.4208V77.4175V77.4142V77.4109V77.4076V77.4043V77.401V77.3977V77.3944V77.3911V77.3878V77.3845V77.3812V77.3779V77.3746V77.3713V77.368V77.3647V77.3615V77.3582V77.3549V77.3516V77.3483V77.345V77.3417V77.3384V77.3352V77.3319V77.3286V77.3253V77.322V77.3188V77.3155V77.3122V77.3089V77.3057V77.3024V77.2991V77.2958V77.2926V77.2893V77.286V77.2828V77.2795V77.2762V77.273V77.2697V77.2664V77.2632V77.2599V77.2567V77.2534V77.2501V77.2469V77.2436V77.2404V77.2371V77.2339V77.2306V77.2274V77.2241V77.2209V77.2176V77.2144V77.2111V77.2079V77.2046V77.2014V77.1981V77.1949V77.1917V77.1884V77.1852V77.1819V77.1787V77.1755V77.1722V77.169V77.1658V77.1625V77.1593V77.1561V77.1528V77.1496V77.1464V77.1432V77.1399V77.1367V77.1335V77.1303V77.1271V77.1238V77.1206V77.1174V77.1142V77.111V77.1077V77.1045V77.1013V77.0981V77.0949V77.0917V77.0885V77.0853V77.0821V77.0789V77.0756V77.0724V77.0692V77.066V77.0628V77.0596V77.0564V77.0532V77.05V77.0468V77.0436V77.0405V77.0373V77.0341V77.0309V77.0277V77.0245V77.0213V77.0181V77.0149V77.0117V77.0086V77.0054V77.0022V76.999V76.9958V76.9926V76.9895V76.9863V76.9831V76.9799V76.9768V76.9736V76.9704V76.9672V76.9641V76.9609V76.9577V76.9546V76.9514V76.9482V76.9451V76.9419V76.9387V76.9356V76.9324V76.9293V76.9261V76.9229V76.9198V76.9166V76.9135V76.9103V76.9072V76.904V76.9009V76.8977V76.8946V76.8914V76.8883V76.8851V76.882V76.8788V76.8757V76.8725V76.8694V76.8662V76.8631V76.86V76.8568V76.8537V76.8506V76.8474V76.8443V76.8412V76.838V76.8349V76.8318V76.8286V76.8255V76.8224V76.8192V76.8161V76.813V76.8099V76.8067V76.8036V76.8005V76.7974V76.7943V76.7911V76.788V76.7849V76.7818V76.7787V76.7756V76.7725V76.7694V76.7662V76.7631V76.76V76.7569V76.7538V76.7507V76.7476V76.7445V76.7414V76.7383V76.7352V76.7321V76.729V76.7259V76.7228V76.7197V76.7166V76.7135V76.7104V76.7073V76.7042V76.7012V76.6981V76.695V76.6919V76.6888V76.6857V76.6826V76.6796V76.6765V76.6734V76.6703V76.6672V76.6642V76.6611V76.658V76.6549V76.6519V76.6488V76.6457V76.6426V76.6396V76.6365V76.6334V76.6304V76.6273V76.6242V76.6212V76.6181V76.615V76.612V76.6089V76.6059V76.6028V76.5997V76.5967V76.5936V76.5906V76.5875V76.5845V76.5814V76.5784V76.5753V76.5723V76.5692V76.5662V76.5631V76.5601V76.557V76.554V76.551V76.5479V76.5449V76.5418V76.5388V76.5358V76.5327V76.5297V76.5267V76.5236V76.5206V76.5176V76.5145V76.5115V76.5085V76.5054V76.5024V76.4994V76.4964V76.4933V76.4903V76.4873V76.4843V76.4813V76.4782V76.4752V76.4722V76.4692V76.4662V76.4632V76.4602V76.4571V76.4541V76.4511V76.4481V76.4477C263.743 75.8839 263.824 75.4054 263.903 75.0099L263.905 75.0008L263.906 74.9915L272.328 26.6289L272.481 25.7502H271.589H260.105H259.476L259.366 26.3699L253.624 58.9087C252.702 64.1061 251.073 68.5182 248.753 72.1633C246.419 75.8312 243.727 78.6392 240.686 80.6126C237.729 82.501 234.72 83.4281 231.649 83.4281C228.843 83.4281 226.422 82.5518 224.349 80.7982C222.356 79.1116 221.297 76.5042 221.297 72.8212C221.297 72.0819 221.338 71.4379 221.417 70.8855L221.417 70.8856L221.419 70.8725C221.504 70.192 221.589 69.4294 221.673 68.5852L229.07 26.6305L229.225 25.7502H228.331H216.846H216.215L216.107 26.373L208.834 68.6105L208.831 68.6245L208.829 68.6386C208.658 69.928 208.528 71.1761 208.442 72.3829C208.356 73.5072 208.312 74.6316 208.312 75.7561C208.312 79.6982 209.19 83.1552 210.973 86.0981L210.973 86.0981L210.979 86.1068C212.748 88.938 215.098 91.1548 218.019 92.7481Z" fill="#E32227" stroke="#E32227" stroke-width="1.5"/>
<path d="M150.503 2.78125H149.875L149.765 3.39941L147.851 14.1183L147.693 15.0001H148.589H175.131L161.504 92.7258L161.35 93.6053H162.243H174.365H174.995L175.104 92.9849L188.777 15.0001H215.582H216.21L216.32 14.382L218.234 3.66309L218.392 2.78125H217.496H150.503Z" fill="#E32227" stroke="#E32227" stroke-width="1.5"/>
<path d="M136.764 2.14817L110.146 50.4311L97.8084 14.3949C96.4222 10.1521 94.4858 7.01839 91.9391 5.10544C89.3746 3.0937 85.7405 2.14307 81.1464 2.14307H80.6854L80.4772 2.55427L75.373 12.6351L74.8217 13.7239H76.0421C78.5151 13.7239 80.3526 14.1793 81.6322 15.0073L81.6403 15.0125L81.6485 15.0176C82.9915 15.8383 84.0959 17.291 84.9092 19.4871L84.9101 19.4893L101.633 64.2113L96.3167 73.8554C96.316 73.8566 96.3154 73.8578 96.3147 73.859C92.7232 80.205 88.5462 83.1728 83.8261 83.1728C81.8186 83.1728 80.0349 82.7334 78.4576 81.8687C76.8283 80.8895 75.3596 79.6653 74.0506 78.1926L73.4783 77.5489L72.9194 78.2042L65.5182 86.8814L65.0871 87.3869L65.5369 87.8759C67.5735 90.0896 70.1315 91.849 73.1946 93.1617C76.2677 94.4788 79.516 95.1364 82.9328 95.1364C88.8545 95.1364 93.8342 93.5664 97.8179 90.3806C101.837 87.2341 105.807 82.2087 109.742 75.3642L109.743 75.3634L148.152 8.37034L148.533 7.70513L147.86 7.33856L137.779 1.85151L137.124 1.49488L136.764 2.14817Z" fill="#E32227" stroke="#E32227" stroke-width="1.5"/>
<path d="M31.1114 18.812L31.1114 18.8121L31.118 18.8072C36.0088 15.1598 41.4665 13.3413 47.5136 13.3413C51.4467 13.3413 54.7508 13.8857 57.4472 14.948L57.4598 14.9529L57.4725 14.9574C60.3125 15.9598 62.9838 17.2538 65.4876 18.8396L66.1609 19.266L66.5457 18.568L72.0327 8.61477L72.3906 7.96561L71.7457 7.60016C69.1444 6.12611 65.9115 4.70562 62.0567 3.33503C58.1314 1.93937 53.6198 1.25 48.5345 1.25C41.5395 1.25 35.0894 2.67555 29.1959 5.5352C23.3989 8.30428 18.381 12.1987 14.146 17.2115C9.91298 22.222 6.6366 28.0895 4.31212 34.8046L4.31029 34.81C2.06971 41.4455 0.953125 48.6308 0.953125 56.3601C0.953125 64.5293 2.41491 71.5426 5.3729 77.3716L5.37499 77.3757C8.32972 83.1113 12.4692 87.5174 17.791 90.5709L17.7956 90.5735C23.1986 93.6236 29.4544 95.1366 36.5395 95.1366C41.4398 95.1366 45.8451 94.6209 49.7486 93.58C53.6121 92.5497 57.1408 91.3026 60.3321 89.8363L60.8633 89.5922L60.7563 89.0176L58.7146 78.0435L58.5303 77.0529L57.6343 77.5137C54.6872 79.0293 51.6562 80.3343 48.541 81.4288L48.5349 81.431C45.5703 82.5016 42.129 83.0453 38.1984 83.0453C31.4184 83.0453 25.8794 80.6985 21.5209 76.0111C17.184 71.3469 14.9585 64.5389 14.9585 55.4668C14.9585 47.2196 16.431 39.9725 19.3543 33.7082L19.3559 33.7048C22.2878 27.3385 26.21 22.3842 31.1114 18.812Z" fill="#E32227" stroke="#E32227" stroke-width="1.5"/>
</svg>
