<svg width="477" height="150" viewBox="0 0 477 150" fill="none" xmlns="http://www.w3.org/2000/svg">
<path d="M51.5233 37.1769C45.3473 37.1769 39.7635 39.0382 34.7719 42.7607C29.7803 46.3986 25.804 51.4325 22.8429 57.8624C19.8817 64.2076 18.4012 71.5258 18.4012 79.8169C18.4012 88.954 20.6432 95.9338 25.1271 100.756C29.6111 105.579 35.3218 107.99 42.2593 107.99C46.2356 107.99 49.7467 107.44 52.7924 106.34C55.9227 105.24 58.9684 103.929 61.9295 102.406L63.96 113.32C60.8297 114.758 57.361 115.985 53.5538 117C49.7467 118.015 45.4319 118.523 40.6095 118.523C33.6721 118.523 27.5806 117.042 22.3352 114.081C17.1744 111.12 13.1558 106.848 10.2793 101.264C7.40278 95.5954 5.96452 88.7425 5.96452 80.7052C5.96452 73.091 7.06437 66.0266 9.26405 59.5121C11.5483 52.9131 14.7633 47.1601 18.9088 42.2531C23.0544 37.3461 27.9613 33.539 33.6298 30.8317C39.3828 28.0398 45.6857 26.6438 52.5386 26.6438C57.5302 26.6438 61.9295 27.3206 65.7367 28.6743C69.5438 30.0279 72.7164 31.4239 75.2545 32.8621L69.7976 42.7607C67.2595 41.1533 64.5522 39.8419 61.6757 38.8267C58.8838 37.7268 55.4997 37.1769 51.5233 37.1769ZM87.6367 108.117C92.7128 108.117 97.0699 104.902 100.708 98.4719L106.165 88.5733L89.4133 43.776C88.5673 41.4917 87.3828 39.8842 85.86 38.9536C84.4217 38.0229 82.4336 37.5576 79.8955 37.5576L84.9717 27.5321C89.4556 27.5321 92.8821 28.4628 95.2509 30.324C97.6198 32.1007 99.4811 35.0618 100.835 39.2074L113.652 76.6443L140.937 27.1514L150.962 32.6083L112.764 99.2333C108.872 106.002 104.98 110.909 101.089 113.954C97.2814 117 92.5013 118.523 86.7483 118.523C83.4488 118.523 80.3185 117.888 77.3574 116.619C74.3963 115.35 71.9428 113.658 69.9969 111.543L77.3574 102.914C78.711 104.436 80.2339 105.705 81.9259 106.721C83.618 107.651 85.5216 108.117 87.6367 108.117ZM153.947 28.1667H220.572L218.669 38.8267H191.384L177.679 117H165.623L179.328 38.8267H152.044L153.947 28.1667ZM230.84 118.523C227.456 118.523 224.325 117.761 221.449 116.239C218.657 114.716 216.415 112.601 214.723 109.893C213.031 107.101 212.185 103.802 212.185 99.9948C212.185 98.8949 212.227 97.7951 212.312 96.6952C212.396 95.5108 212.523 94.284 212.692 93.015L219.926 51.0095H231.347L223.987 92.7612C223.902 93.6072 223.818 94.3687 223.733 95.0455C223.648 95.6377 223.606 96.3145 223.606 97.076C223.606 100.883 224.706 103.717 226.906 105.579C229.105 107.44 231.686 108.37 234.647 108.37C237.862 108.37 240.992 107.398 244.038 105.452C247.168 103.421 249.918 100.545 252.287 96.8221C254.656 93.0996 256.305 88.6156 257.236 83.3702L262.947 51.0095H274.368L265.992 99.1064C265.908 99.5294 265.823 100.037 265.739 100.629C265.739 101.137 265.739 101.687 265.739 102.279C265.739 104.648 266.415 106.34 267.769 107.355C269.123 108.286 270.899 108.751 273.099 108.751L269.165 117.635C264.596 117.635 261.085 116.535 258.632 114.335C256.263 112.051 255.079 108.54 255.079 103.802V102.66C248.903 113.235 240.823 118.523 230.84 118.523ZM325.904 59.5121C322.943 59.5121 319.728 60.612 316.26 62.8117C312.791 65.0113 309.576 68.4378 306.615 73.091C303.738 77.6595 301.665 83.5394 300.396 90.7307L295.828 117H284.406L295.955 51.0095H306.995L304.204 66.2381C306.826 61.1619 310.337 57.101 314.737 54.0552C319.221 51.0095 323.916 49.4867 328.823 49.4867C334.576 49.4867 339.187 51.2633 342.656 54.8167C346.124 58.2854 347.859 62.5579 347.859 67.634C347.859 69.7491 347.605 72.4141 347.097 75.629L339.864 117H328.442L335.422 77.5326C335.845 75.5021 336.099 74.0216 336.184 73.091C336.268 72.0757 336.31 71.1451 336.31 70.299C336.31 66.9995 335.338 64.3768 333.392 62.431C331.53 60.4851 329.035 59.5121 325.904 59.5121ZM387.563 118.523C381.979 118.523 377.03 117.338 372.715 114.97C368.485 112.516 365.143 109.047 362.69 104.563C360.321 99.9948 359.136 94.6225 359.136 88.4464C359.136 81.4244 360.575 74.9522 363.451 69.03C366.412 63.1078 370.558 58.37 375.888 54.8167C381.303 51.2633 387.605 49.4867 394.797 49.4867C399.704 49.4867 403.849 50.4173 407.233 52.2786C410.702 54.1398 413.367 56.551 415.228 59.5121C417.09 62.4733 418.02 65.6459 418.02 69.03C418.02 73.6832 416.92 77.5326 414.721 80.5783C412.521 83.624 409.687 85.9929 406.218 87.685C402.749 89.2925 398.985 90.4346 394.924 91.1114C390.947 91.7883 387.14 92.1267 383.502 92.1267C381.218 92.1267 378.934 92.0421 376.649 91.8729C374.45 91.619 372.504 91.3652 370.812 91.1114C371.489 96.6952 373.477 100.968 376.776 103.929C380.076 106.89 384.306 108.37 389.467 108.37C393.697 108.37 397.462 107.821 400.761 106.721C404.061 105.621 406.853 104.521 409.137 103.421L410.152 113.574C407.614 114.758 404.399 115.9 400.507 117C396.616 118.015 392.301 118.523 387.563 118.523ZM393.908 59.1314C389.932 59.1314 386.336 60.1467 383.121 62.1771C379.907 64.123 377.242 66.8303 375.126 70.299C373.096 73.6832 371.742 77.5749 371.066 81.9743C373.011 82.3127 374.957 82.6088 376.903 82.8626C378.934 83.0318 381.133 83.1164 383.502 83.1164C390.609 83.1164 396.235 82.1435 400.381 80.1976C404.526 78.1671 406.599 74.7407 406.599 69.9183C406.599 66.9572 405.414 64.4191 403.046 62.304C400.761 60.189 397.716 59.1314 393.908 59.1314ZM471.013 65.3498C468.559 63.6577 465.81 62.1771 462.764 60.9081C459.803 59.639 456.419 59.0045 452.612 59.0045C448.635 59.0045 445.547 59.6814 443.348 61.035C441.148 62.3887 440.048 64.1653 440.048 66.365C440.048 67.634 440.387 68.8608 441.063 70.0452C441.825 71.1451 443.136 72.3295 444.997 73.5986C446.943 74.8676 449.651 76.3905 453.119 78.1671C458.872 81.0437 463.145 84.0471 465.937 87.1774C468.729 90.2231 470.125 93.9879 470.125 98.4719C470.125 102.956 468.94 106.678 466.571 109.64C464.202 112.601 461.03 114.843 457.053 116.365C453.077 117.804 448.593 118.523 443.602 118.523C438.441 118.523 433.872 117.888 429.896 116.619C426.004 115.266 422.62 113.531 419.743 111.416L426.216 102.025C428.5 103.887 431.207 105.452 434.337 106.721C437.468 107.99 440.894 108.624 444.617 108.624C448.847 108.624 452.189 107.821 454.642 106.213C457.096 104.606 458.322 102.617 458.322 100.249C458.322 98.0489 457.392 96.0184 455.531 94.1571C453.754 92.2959 450.243 90.0539 444.997 87.4312C440.767 85.3161 437.468 83.2856 435.099 81.3398C432.73 79.3093 431.08 77.1519 430.15 74.8676C429.219 72.5833 428.754 69.9606 428.754 66.9995C428.754 63.6154 429.769 60.612 431.799 57.9893C433.83 55.3666 436.664 53.2938 440.302 51.771C443.94 50.2481 448.128 49.4867 452.866 49.4867C457.603 49.4867 461.834 50.1212 465.556 51.3902C469.363 52.5747 472.705 54.0129 475.582 55.705L471.013 65.3498Z" fill="#E32227"/>
</svg>
