<svg width="20" height="20" viewBox="0 0 20 20" fill="none" xmlns="http://www.w3.org/2000/svg">
<path d="M15.92 10.528C15.7917 10.382 15.721 10.1943 15.721 9.99997C15.721 9.80565 15.7917 9.61797 15.92 9.47197L16.944 8.31997C17.0568 8.19411 17.1269 8.03574 17.1441 7.86758C17.1614 7.69942 17.1249 7.53012 17.04 7.38397L15.44 4.61597C15.3559 4.46999 15.2279 4.35428 15.0742 4.28532C14.9205 4.21637 14.7489 4.1977 14.584 4.23197L13.08 4.53597C12.8886 4.57552 12.6894 4.54365 12.5199 4.44637C12.3504 4.3491 12.2224 4.19316 12.16 4.00797L11.672 2.54397C11.6183 2.38508 11.5161 2.24707 11.3797 2.14945C11.2433 2.05183 11.0797 1.99954 10.912 1.99997H7.71199C7.53754 1.99087 7.3649 2.03912 7.22044 2.13735C7.07599 2.23558 6.96765 2.37839 6.91199 2.54397L6.46399 4.00797C6.40159 4.19316 6.27357 4.3491 6.10408 4.44637C5.93459 4.54365 5.73536 4.57552 5.54399 4.53597L3.99999 4.23197C3.84363 4.20988 3.68423 4.23455 3.54187 4.30289C3.39951 4.37122 3.28055 4.48016 3.19999 4.61597L1.59999 7.38397C1.51292 7.52849 1.47377 7.69684 1.48814 7.86495C1.5025 8.03306 1.56966 8.19233 1.67999 8.31997L2.69599 9.47197C2.82425 9.61797 2.89498 9.80565 2.89498 9.99997C2.89498 10.1943 2.82425 10.382 2.69599 10.528L1.67999 11.68C1.56966 11.8076 1.5025 11.9669 1.48814 12.135C1.47377 12.3031 1.51292 12.4715 1.59999 12.616L3.19999 15.384C3.28407 15.53 3.41209 15.6457 3.56579 15.7146C3.7195 15.7836 3.89105 15.8022 4.05599 15.768L5.55999 15.464C5.75136 15.4244 5.95059 15.4563 6.12008 15.5536C6.28957 15.6508 6.41759 15.8068 6.47999 15.992L6.96799 17.456C7.02365 17.6216 7.13199 17.7644 7.27644 17.8626C7.4209 17.9608 7.59354 18.0091 7.76799 18H10.968C11.1357 18.0004 11.2993 17.9481 11.4357 17.8505C11.5721 17.7529 11.6743 17.6149 11.728 17.456L12.216 15.992C12.2784 15.8068 12.4064 15.6508 12.5759 15.5536C12.7454 15.4563 12.9446 15.4244 13.136 15.464L14.64 15.768C14.8049 15.8022 14.9765 15.7836 15.1302 15.7146C15.2839 15.6457 15.4119 15.53 15.496 15.384L17.096 12.616C17.1809 12.4698 17.2174 12.3005 17.2001 12.1324C17.1829 11.9642 17.1128 11.8058 17 11.68L15.92 10.528ZM14.728 11.6L15.368 12.32L14.344 14.096L13.4 13.904C12.8238 13.7862 12.2244 13.8841 11.7157 14.179C11.2069 14.474 10.8241 14.9454 10.64 15.504L10.336 16.4H8.28799L7.99999 15.488C7.81587 14.9294 7.4331 14.458 6.92431 14.163C6.41553 13.8681 5.81617 13.7702 5.23999 13.888L4.29599 14.08L3.25599 12.312L3.89599 11.592C4.28955 11.152 4.50714 10.5823 4.50714 9.99197C4.50714 9.40163 4.28955 8.83199 3.89599 8.39197L3.25599 7.67197L4.27999 5.91197L5.22399 6.10397C5.80017 6.22175 6.39953 6.12388 6.90831 5.82893C7.4171 5.53399 7.79987 5.0625 7.98399 4.50397L8.28799 3.59997H10.336L10.64 4.51197C10.8241 5.0705 11.2069 5.54199 11.7157 5.83693C12.2244 6.13188 12.8238 6.22975 13.4 6.11197L14.344 5.91997L15.368 7.69597L14.728 8.41597C14.3388 8.85498 14.124 9.42132 14.124 10.008C14.124 10.5946 14.3388 11.161 14.728 11.6ZM9.31199 6.79997C8.67909 6.79997 8.0604 6.98765 7.53417 7.33927C7.00793 7.69089 6.59778 8.19066 6.35558 8.77539C6.11338 9.36011 6.05 10.0035 6.17348 10.6243C6.29695 11.245 6.60172 11.8152 7.04925 12.2627C7.49678 12.7102 8.06696 13.015 8.6877 13.1385C9.30844 13.262 9.95185 13.1986 10.5366 12.9564C11.1213 12.7142 11.6211 12.304 11.9727 11.7778C12.3243 11.2516 12.512 10.6329 12.512 9.99997C12.512 9.15128 12.1748 8.33735 11.5747 7.73723C10.9746 7.13712 10.1607 6.79997 9.31199 6.79997ZM9.31199 11.6C8.99554 11.6 8.6862 11.5061 8.42308 11.3303C8.15996 11.1545 7.95488 10.9046 7.83378 10.6123C7.71268 10.3199 7.681 9.9982 7.74273 9.68783C7.80447 9.37746 7.95686 9.09237 8.18062 8.8686C8.40438 8.64484 8.68948 8.49245 8.99985 8.43072C9.31022 8.36898 9.63192 8.40067 9.92428 8.52177C10.2166 8.64287 10.4665 8.84794 10.6423 9.11106C10.8182 9.37418 10.912 9.68352 10.912 9.99997C10.912 10.4243 10.7434 10.8313 10.4434 11.1313C10.1433 11.4314 9.73634 11.6 9.31199 11.6Z" fill="#2E2E2E"/>
</svg>
